<svg xmlns="http://www.w3.org/2000/svg" width="680" height="480" viewBox="0 0 680 480" font-family="Segoe UI, Arial, sans-serif">
  <rect width="680" height="480" fill="#ffffff"/>
  <text x="340" y="34" text-anchor="middle" font-size="22" font-weight="bold" fill="#222">Prim - Arvore Geradora Minima (inicio: 0)</text>

  <!-- arestas fora da arvore -->
  <g stroke="#c4c4c4" stroke-width="2">
    <line x1="90" y1="210" x2="580" y2="210"/>  <!-- 0-5 :14 -->
    <line x1="240" y1="90" x2="240" y2="330"/>  <!-- 1-2 :10 -->
    <line x1="240" y1="90" x2="430" y2="90"/>   <!-- 1-3 :15 -->
    <line x1="240" y1="330" x2="430" y2="90"/>  <!-- 2-3 :11 -->
  </g>
  <!-- arestas da AGM (destacadas) -->
  <g stroke="#2e7d32" stroke-width="4">
    <line x1="90" y1="210" x2="240" y2="90"/>   <!-- 0-1 :7 -->
    <line x1="90" y1="210" x2="240" y2="330"/>  <!-- 0-2 :9 -->
    <line x1="240" y1="330" x2="580" y2="210"/> <!-- 2-5 :2 -->
    <line x1="430" y1="330" x2="580" y2="210"/> <!-- 4-5 :9 -->
    <line x1="430" y1="90" x2="430" y2="330"/>  <!-- 3-4 :6 -->
  </g>

  <!-- pesos das arestas -->
  <g font-size="14" text-anchor="middle">
    <g><rect x="151" y="139" width="22" height="18" fill="#fff"/><text x="162" y="153" fill="#2e7d32" font-weight="bold">7</text></g>
    <g><rect x="151" y="259" width="22" height="18" fill="#fff"/><text x="162" y="273" fill="#2e7d32" font-weight="bold">9</text></g>
    <g><rect x="287" y="190" width="28" height="18" fill="#fff"/><text x="301" y="204" fill="#999">14</text></g>
    <g><rect x="226" y="201" width="28" height="18" fill="#fff"/><text x="240" y="215" fill="#999">10</text></g>
    <g><rect x="321" y="72" width="28" height="18" fill="#fff"/><text x="335" y="86" fill="#999">15</text></g>
    <g><rect x="340" y="177" width="28" height="18" fill="#fff"/><text x="354" y="191" fill="#999">11</text></g>
    <g><rect x="396" y="261" width="22" height="18" fill="#fff"/><text x="407" y="275" fill="#2e7d32" font-weight="bold">2</text></g>
    <g><rect x="429" y="201" width="22" height="18" fill="#fff"/><text x="440" y="215" fill="#2e7d32" font-weight="bold">6</text></g>
    <g><rect x="491" y="261" width="22" height="18" fill="#fff"/><text x="502" y="275" fill="#2e7d32" font-weight="bold">9</text></g>
  </g>

  <!-- nos -->
  <g font-size="20" font-weight="bold" text-anchor="middle">
    <circle cx="90"  cy="210" r="26" fill="#c8e6c9" stroke="#2e7d32" stroke-width="2"/><text x="90"  y="217">0</text>
    <circle cx="240" cy="90"  r="26" fill="#c8e6c9" stroke="#2e7d32" stroke-width="2"/><text x="240" y="97">1</text>
    <circle cx="240" cy="330" r="26" fill="#c8e6c9" stroke="#2e7d32" stroke-width="2"/><text x="240" y="337">2</text>
    <circle cx="430" cy="90"  r="26" fill="#c8e6c9" stroke="#2e7d32" stroke-width="2"/><text x="430" y="97">3</text>
    <circle cx="430" cy="330" r="26" fill="#c8e6c9" stroke="#2e7d32" stroke-width="2"/><text x="430" y="337">4</text>
    <circle cx="580" cy="210" r="26" fill="#c8e6c9" stroke="#2e7d32" stroke-width="2"/><text x="580" y="217">5</text>
  </g>

  <!-- legenda -->
  <g font-size="14" fill="#333">
    <line x1="60" y1="430" x2="100" y2="430" stroke="#2e7d32" stroke-width="4"/>
    <text x="108" y="435">aresta escolhida para a AGM</text>
    <line x1="60" y1="458" x2="100" y2="458" stroke="#c4c4c4" stroke-width="2"/>
    <text x="108" y="463">aresta nao usada</text>
  </g>
  <text x="660" y="462" text-anchor="end" font-size="15" font-weight="bold" fill="#2e7d32">Peso total = 33</text>
</svg>
